<?xml version="1.0" encoding="utf-8"?>
<!-- Generator: Adobe Illustrator 16.0.3, SVG Export Plug-In . SVG Version: 6.00 Build 0)  -->
<!DOCTYPE svg PUBLIC "-//W3C//DTD SVG 1.1//EN" "http://www.w3.org/Graphics/SVG/1.1/DTD/svg11.dtd">
<svg version="1.1" id="Capa_1" xmlns="http://www.w3.org/2000/svg" xmlns:xlink="http://www.w3.org/1999/xlink" x="0px" y="0px"
	 width="512px" height="512px" viewBox="0 0 512 512" enable-background="new 0 0 512 512" xml:space="preserve">
<path fill-rule="evenodd" clip-rule="evenodd" fill="#C40000" d="M20.034,274.419c3.774-9.173,10.704-12.325,20.436-12.121
	c20.309,0.426,40.632,0.074,60.949,0.19c2.946,0.015,4.25-0.657,4.865-3.82c1.869-9.636,4.188-19.188,6.467-29.377
	c-1.982-0.092-3.571-0.23-5.161-0.233c-14.93-0.019-29.861,0.112-44.789-0.054c-11.784-0.131-19.241-9.84-15.989-20.434
	c2.044-6.659,7.762-10.881,15.381-10.925c17.393-0.102,34.785-0.04,52.179-0.043c1.679-0.002,3.359,0,5.384,0
	c2.474-11.103,4.899-21.984,7.47-33.52c-8.501,0-16.465-0.009-24.43,0.006c-4.75,0.009-9.249-0.828-12.776-4.292
	c-4.555-4.474-6.184-9.917-4.264-16.048c1.907-6.089,6.128-10.323,12.553-10.697c10.125-0.592,20.307-0.658,30.446-0.337
	c4.552,0.144,6.408-1.36,6.764-5.648c0.164-1.975,0.752-3.92,1.207-5.866c2.336-10.008,8.017-14.609,18.279-14.638
	c17.084-0.048,34.17-0.015,51.254-0.015c62.337,0,124.674,0,187.011,0c1.386,0,2.771-0.021,4.156,0.008
	c12.923,0.267,19.731,8.973,16.723,21.538c-3.721,15.541-7.565,31.051-11.327,46.583c-11.243,46.448-22.511,92.889-33.638,139.365
	c-0.963,4.018-2.776,6.458-6.489,8.588c-17.357,9.956-27.436,25.108-30.33,44.922c-0.369,2.528-0.533,4.282-3.872,4.27
	c-31.091-0.112-62.183-0.077-93.274-0.098c-0.445,0-0.89-0.162-1.764-0.332c-0.546-2.852-1.047-5.829-1.691-8.776
	c-6.292-28.827-32.884-49.646-61.567-48.23c-30.709,1.521-55.169,23.876-58.674,53.8c-0.323,2.759-1.26,3.86-3.976,3.6
	c-1.373-0.131-2.769-0.013-4.154-0.021c-13.951-0.101-20.499-8.358-17.448-21.997c3.825-17.096,7.654-34.191,11.461-51.292
	c0.299-1.339,0.442-2.713,0.744-4.611c-1.856,0-3.498,0-5.139,0c-17.547,0-35.103-0.333-52.637,0.131
	c-9.764,0.259-16.673-2.914-20.34-12.183C20.034,279.346,20.034,276.884,20.034,274.419z"/>
<path fill-rule="evenodd" clip-rule="evenodd" fill="#C40000" d="M492.977,280.884c-8.642,25.896-17.306,51.784-25.909,77.694
	c-2.104,6.338-5.531,11.218-12.779,12.742c-5.319-33.816-24.942-52.939-59.185-57.349c4.314-17.225,8.589-34.285,12.912-51.545
	c15.042,0,29.793,0,44.543,0c7.074,0,14.185,0.449,21.214-0.108c9.683-0.771,15.86,3.213,19.204,12.101
	C492.977,276.573,492.977,278.729,492.977,280.884z"/>
<path fill-rule="evenodd" clip-rule="evenodd" fill="#C40000" d="M363.241,375.026c0.55-16.496,14.27-29.752,30.138-29.119
	c16.513,0.658,29.773,14.394,29.151,30.194c-0.65,16.486-14.419,29.753-30.227,29.122
	C375.722,404.561,362.706,391.038,363.241,375.026z"/>
<path fill-rule="evenodd" clip-rule="evenodd" fill="#C40000" d="M142.517,375.092c0.445-16.449,14.138-29.746,30.058-29.189
	c16.477,0.576,29.758,14.27,29.224,30.133c-0.553,16.435-14.313,29.755-30.166,29.195
	C155.081,404.647,142.081,391.189,142.517,375.092z"/>
<path fill-rule="evenodd" clip-rule="evenodd" fill="#C40000" d="M427.616,183.928c8.71,0,17.158-0.324,25.565,0.1
	c7.358,0.369,13.439,6.673,13.67,14.406c0.381,12.729,0.104,25.479,0.104,38.563c-17.389,0-34.672,0-52.57,0
	C418.795,219.307,423.184,201.706,427.616,183.928z"/>
<g>
</g>
<g>
</g>
<g>
</g>
<g>
</g>
<g>
</g>
<g>
</g>
<g>
</g>
<g>
</g>
<g>
</g>
<g>
</g>
<g>
</g>
<g>
</g>
<g>
</g>
<g>
</g>
<g>
</g>
</svg>
