<?xml version="1.0" encoding="utf-8"?>
<!-- Generator: Adobe Illustrator 16.0.3, SVG Export Plug-In . SVG Version: 6.00 Build 0)  -->
<!DOCTYPE svg PUBLIC "-//W3C//DTD SVG 1.1//EN" "http://www.w3.org/Graphics/SVG/1.1/DTD/svg11.dtd">
<svg version="1.1" id="Capa_1" xmlns="http://www.w3.org/2000/svg" xmlns:xlink="http://www.w3.org/1999/xlink" x="0px" y="0px"
	 width="512px" height="512px" viewBox="0 0 512 512" enable-background="new 0 0 512 512" xml:space="preserve">
<path fill-rule="evenodd" clip-rule="evenodd" fill="#C40000" d="M197.667,490.191c0-38.059,0-76.116,0-114.839
	c-2.184,0.699-4.004,1.217-5.78,1.859c-23.184,8.391-46.552,16.211-70.981,20.082c-7.15,1.133-14.688,1.973-21.769,0.97
	c-18.256-2.584-30.629-18.293-31.27-37.789c-0.536-16.323,2.528-32.187,6.678-47.756c6.144-23.052,12.781-45.993,19.977-68.738
	c7.278-23.005,33.169-30.941,51.917-16.508c10.831,8.339,14.671,22.186,10.308,37.109c-5.673,19.402-11.335,38.81-16.996,58.216
	c-0.203,0.697-0.329,1.416-0.748,3.244c10.914-4.029,21.235-7.403,31.208-11.607c26.056-10.982,51.98-22.281,77.894-33.6
	c2.719-1.188,5.133-3.197,7.482-5.081c4.728-3.795,9.312-7.767,14.522-12.14c9.698,9.804,19.236,19.375,28.635,29.083
	c0.732,0.757,0.803,2.515,0.636,3.731c-5.715,41.603-11.542,83.189-17.147,124.806c-0.323,2.399,0.454,5.459,1.808,7.48
	c4.739,7.077,10.02,13.788,14.96,20.734c1.979,2.783,3.466,3.445,5.742,0.21c5.166-7.344,10.688-14.439,15.785-21.83
	c1.07-1.552,1.524-4.016,1.265-5.924c-4.884-35.88-9.919-71.74-14.918-107.604c-0.483-3.466-0.435-7.101-1.504-10.372
	c-2.654-8.122,0.526-13.509,6.535-18.821c7.489-6.621,14.154-14.175,21.21-21.36c1.213,0.84,1.91,1.178,2.423,1.698
	c11.778,11.954,26.489,19.043,41.579,25.734c9.974,4.423,20.041,9.077,29.055,15.135c18.076,12.148,30.267,29.771,41.172,48.225
	c15.531,26.282,27.657,54.163,37.376,83.043c1.911,5.68,2.449,12.368,1.613,18.308c-1.627,11.541-4.678,22.88-7.138,34.303
	c-22.852,0-45.703,0-68.554,0c0.354-1.604,0.634-3.23,1.077-4.811c2.788-9.945,5.634-19.874,8.394-29.828
	c0.312-1.125,0.61-2.53,0.216-3.53c-4.364-11.083-8.867-22.111-13.332-33.154c-0.415,0.092-0.83,0.185-1.246,0.277
	c0,1.458,0.001,2.915,0,4.372c-0.01,16.3-0.051,32.599-0.013,48.897c0.014,5.926,0.217,11.851,0.334,17.776
	C336.603,490.191,267.135,490.191,197.667,490.191z"/>
<path fill-rule="evenodd" clip-rule="evenodd" fill="#C40000" d="M406.071,490.191c-0.117-5.926-0.32-11.851-0.334-17.776
	c-0.038-16.299,0.003-32.598,0.013-48.897c0.001-1.457,0-2.914,0-4.372c0.416-0.093,0.831-0.186,1.246-0.277
	c4.465,11.043,8.968,22.071,13.332,33.154c0.395,1,0.096,2.405-0.216,3.53c-2.76,9.954-5.605,19.883-8.394,29.828
	c-0.443,1.58-0.723,3.206-1.077,4.811C409.117,490.191,407.595,490.191,406.071,490.191z"/>
<path fill-rule="evenodd" clip-rule="evenodd" fill="#C40000" d="M115.401,22.195c1.028,2.061,2.851,4.087,2.942,6.189
	c0.349,8.048,0.143,16.121,0.141,24.184c-0.001,3.206-0.904,6.045-4.633,6.045c-3.919,0-4.895-2.85-4.873-6.299
	c0.051-7.606-0.206-15.224,0.141-22.815c0.113-2.47,1.708-4.872,2.626-7.304C112.964,22.195,114.183,22.195,115.401,22.195z"/>
<path fill-rule="evenodd" clip-rule="evenodd" fill="#C40000" d="M387.057,142.51c-1.023,23.688-4.291,46.784-14.068,68.535
	c-8.861,19.714-21.708,35.893-41.925,45.069c-29.225,13.263-64.308,4.945-84.85-19.762c-15.065-18.12-22.812-39.317-26.442-62.185
	c-3.066-19.312-4.285-38.714-0.33-58.116c5.948-29.182,24.518-47.978,53.852-53.767c23.508-4.641,46.938-4.576,69.726,3.805
	c23.416,8.612,36.278,26.292,40.986,50.171C385.706,124.875,386.079,133.753,387.057,142.51z"/>
<path fill-rule="evenodd" clip-rule="evenodd" fill="#C40000" d="M154.565,108.185c-0.094,9.268-3.144,17.589-8.095,25.294
	c-1.811,2.816-3.642,5.619-5.524,8.388c-4.919,7.236-7.712,15.085-7.528,23.964c0.098,4.712-0.323,9.433-0.444,14.152
	c-0.084,3.265-1.757,5.369-4.901,5.484c-2.62,0.098-3.521,1.306-4.538,3.431c-1.862,3.89-5.412,5.838-9.614,5.899
	c-4.411,0.064-7.742-2.166-10.173-5.924c-0.844-1.304-2.243-2.873-3.597-3.107c-4.079-0.704-5.776-2.886-5.757-6.856
	c0.019-4.11-0.188-8.223-0.13-12.333c0.127-8.972-2.527-17.022-7.475-24.465c-3.279-4.933-6.71-9.855-9.241-15.179
	c-6.752-14.205-6.775-28.546,2.479-41.584c9.152-12.893,22.31-18.522,38.122-16.767C139.842,70.989,154.934,87.594,154.565,108.185z
	 M108.839,156.433c-2.377-13.387-4.689-26.256-6.941-39.135c-1.594-9.116,2.094-13.201,11.232-12.595
	c0.733,0.049,1.483-0.136,2.225-0.221c7.205-0.836,11.606,3.723,10.483,11.018c-0.809,5.259-1.822,10.487-2.73,15.732
	c-1.439,8.316-2.867,16.634-4.294,24.921c3.567,1.028,5.127,0.414,6.05-3.047c1.159-4.347,3.046-8.595,5.224-12.553
	c3.294-5.986,7.627-11.436,10.593-17.562c5.21-10.764,5.856-21.873-1.508-32.005c-7.214-9.926-17.417-13.927-29.582-12.375
	c-21.91,2.797-33.001,24.599-22.711,44.585c5.731,11.131,14.897,20.469,16.766,33.476
	C105.605,156.581,106.947,156.52,108.839,156.433z M113.253,146.167c0.316,0.022,0.633,0.046,0.95,0.068
	c1.85-10.316,3.969-20.594,5.472-30.96c1.444-9.966-7.983,0.23-9.423-4.788c-0.878,1.155-2.651,2.448-2.498,3.444
	C109.413,124.703,111.374,135.428,113.253,146.167z"/>
<path fill-rule="evenodd" clip-rule="evenodd" fill="#C40000" d="M59.018,41.513c1.745,1.297,3.383,2.124,4.494,3.406
	c5.269,6.084,10.397,12.289,15.568,18.457c2.064,2.463,3.052,5.195,0.358,7.663c-2.761,2.529-5.354,1.211-7.449-1.265
	c-5.396-6.376-10.877-12.689-16.003-19.278c-1.065-1.369-1.264-3.934-0.871-5.73C55.373,43.58,57.403,42.781,59.018,41.513z"/>
<path fill-rule="evenodd" clip-rule="evenodd" fill="#C40000" d="M29.151,92.294c10.46,1.922,19.618,3.399,28.637,5.475
	c1.431,0.33,3.334,3.569,3.037,5.071c-0.307,1.554-3.197,3.902-4.667,3.708c-9.177-1.218-18.316-2.855-27.352-4.876
	c-1.49-0.333-3.49-3.373-3.3-4.921C25.725,94.971,28.117,93.458,29.151,92.294z"/>
<path fill-rule="evenodd" clip-rule="evenodd" fill="#C40000" d="M170.375,107.078c-1.015-1.057-3.546-2.518-3.568-4.018
	c-0.029-1.853,1.726-5.047,3.231-5.393c8.861-2.037,17.845-3.642,26.864-4.8c1.586-0.204,4.674,2.176,4.98,3.764
	c0.288,1.5-1.892,4.753-3.476,5.121C189.547,103.808,180.54,105.223,170.375,107.078z"/>
<path fill-rule="evenodd" clip-rule="evenodd" fill="#C40000" d="M187.929,159.71c-1.615-0.558-2.387-0.698-3.029-1.065
	c-7.643-4.372-15.306-8.712-22.874-13.21c-2.51-1.492-3.572-3.863-1.863-6.595c1.65-2.636,4.094-2.981,6.729-1.477
	c7.514,4.292,15.106,8.466,22.406,13.099c1.488,0.944,2.657,3.793,2.441,5.579C191.563,157.493,189.095,158.669,187.929,159.71z"/>
<path fill-rule="evenodd" clip-rule="evenodd" fill="#C40000" d="M151.521,72.349c-4.216-0.21-6.454-4.432-4.101-7.421
	c5.725-7.272,11.673-14.388,17.921-21.209c0.999-1.09,4.701-1.173,5.904-0.191c1.201,0.981,1.864,4.675,0.987,5.815
	c-5.731,7.451-11.907,14.562-18.049,21.689C153.479,71.85,152.09,72.081,151.521,72.349z"/>
<path fill-rule="evenodd" clip-rule="evenodd" fill="#C40000" d="M39.095,159.52c-0.867-0.834-3.15-2.025-3.248-3.373
	c-0.134-1.858,0.84-4.627,2.289-5.621c4.992-3.419,10.385-6.254,15.647-9.272c2.629-1.51,5.171-3.412,8.013-4.211
	c1.559-0.438,4.488,0.53,5.285,1.81c0.815,1.308,0.488,4.888-0.556,5.548c-8.189,5.178-16.668,9.898-25.074,14.733
	C41.083,159.344,40.563,159.291,39.095,159.52z"/>
<g>
</g>
<g>
</g>
<g>
</g>
<g>
</g>
<g>
</g>
<g>
</g>
<g>
</g>
<g>
</g>
<g>
</g>
<g>
</g>
<g>
</g>
<g>
</g>
<g>
</g>
<g>
</g>
<g>
</g>
</svg>
