<?xml version="1.0" encoding="utf-8"?>
<!-- Generator: Adobe Illustrator 16.0.3, SVG Export Plug-In . SVG Version: 6.00 Build 0)  -->
<!DOCTYPE svg PUBLIC "-//W3C//DTD SVG 1.1//EN" "http://www.w3.org/Graphics/SVG/1.1/DTD/svg11.dtd">
<svg version="1.1" id="Capa_1" xmlns="http://www.w3.org/2000/svg" xmlns:xlink="http://www.w3.org/1999/xlink" x="0px" y="0px"
	 width="512px" height="512px" viewBox="0 0 512 512" enable-background="new 0 0 512 512" xml:space="preserve">
<path fill-rule="evenodd" clip-rule="evenodd" fill="#C40D0A" d="M267.483,320.312c47.531,0,95.063-0.001,142.594,0.001
	c4.841,0,5.212,0.326,4.88,4.964c-3.526,49.32-25.725,87.891-66.578,115.771c-3.676,2.509-7.406,3.667-11.917,3.653
	c-46.545-0.125-93.091-0.099-139.636-0.031c-3.329,0.005-6.143-0.813-8.907-2.652c-41.935-27.918-64.684-66.956-68.107-117.23
	c-0.27-3.966,0.22-4.452,4.422-4.452c47.75-0.008,95.5-0.005,143.25-0.005C267.483,320.324,267.483,320.317,267.483,320.312z"/>
<path fill-rule="evenodd" clip-rule="evenodd" fill="#C40D0A" d="M85.893,159.487c-0.494-0.644-1.229-1.842-2.19-2.815
	c-6.232-6.308-12.445-12.638-18.817-18.803c-2.125-2.056-2.403-3.606-0.138-5.67c2.505-2.284,4.894-4.708,7.187-7.207
	c2.036-2.219,3.685-2.106,5.685,0.104c2.568,2.838,5.387,5.446,8.087,8.166c1.613,1.624,3.456,2.719,5.414,0.833
	c1.957-1.885,0.974-3.778-0.649-5.412c-2.932-2.952-5.844-5.924-8.824-8.826c-1.431-1.393-1.733-2.741-0.253-4.229
	c2.934-2.948,5.88-5.884,8.833-8.812c1.76-1.745,3.079-0.706,4.437,0.66c6.253,6.287,12.539,12.542,18.814,18.807
	c0.542,0.542,1.037,1.435,1.655,1.534c1.456,0.234,3.32,0.639,4.386-0.032c1.686-1.06,1.608-3.063,0.188-4.57
	c-2.628-2.786-5.363-5.473-8.068-8.186c-4.02-4.031-7.981-8.124-12.11-12.04c-2.214-2.101-2.059-3.717,0.117-5.699
	c2.667-2.429,5.105-5.108,7.69-7.63c2.929-2.855,3.843-2.849,6.78,0.085c15.646,15.628,31.278,31.272,46.914,46.911
	c11.146,11.148,22.295,22.292,33.434,33.446c3.252,3.257,3.187,5.195-0.809,7.35c-2.328,1.255-5.084,2.103-7.717,2.332
	c-7.848,0.684-15.728,1.042-23.601,1.393c-7.834,0.348-14.322,3.438-19.823,8.966c-15.443,15.519-30.952,30.973-46.432,46.455
	c-3.676,3.676-4.721,3.699-8.313,0.109c-19.978-19.963-39.953-39.929-59.926-59.896c-3.149-3.147-3.157-4.461-0.019-7.635
	c3.156-3.191,6.405-6.293,9.484-9.556c1.827-1.936,3.343-2.044,5.204-0.071c2.703,2.866,5.574,5.572,8.329,8.39
	c1.714,1.754,3.657,2.876,5.644,0.798c1.825-1.909,0.775-3.804-0.875-5.428c-2.81-2.764-5.515-5.637-8.392-8.327
	c-1.956-1.829-2.019-3.367-0.053-5.208c2.556-2.393,5.071-4.842,7.436-7.421c1.917-2.091,3.456-2.091,5.451-0.05
	c6.273,6.417,12.663,12.722,19.026,19.05c0.689,0.686,1.423,1.416,2.279,1.826C83.553,164.233,85.981,162.581,85.893,159.487z"/>
<path fill-rule="evenodd" clip-rule="evenodd" fill="#C40D0A" d="M271.737,279.726c0.585-4.353,1.219-8.432,1.671-12.532
	c3.381-30.666,0.038-60.306-13.49-88.408c-0.487-1.011-0.498-2.636-0.037-3.661c4.924-10.943,13.044-17.618,25.347-18.524
	c4.771-0.352,5.603-1.789,3.808-6.433c-3.681-9.528-2.154-18.208,4.961-25.474c6.736-6.879,15.06-8.617,24.177-5.548
	c2.437,0.82,4.707,2.311,6.849,3.791c3.712,2.564,5.704,1.919,6.738-2.458c3.595-15.219,20.969-21.478,33.021-11.893
	c0.513,0.408,1.021,0.83,1.488,1.289c5.141,5.056,5.142,6.233,0.082,11.287c-8.367,8.358-16.86,16.597-25.001,25.17
	c-2.13,2.244-3.271,5.482-4.658,8.364c-1.366,2.834-2.199,5.954-3.774,8.65c-1.232,2.111-1.354,3.635,0.059,5.645
	c11.238,15.989,9.874,32.516-3.73,46.306c-2.477,2.511-2.375,4.21,0.486,6.434c6.397,4.971,8.576,11.358,6.572,19.197
	c-1.071,4.191,0.03,5.574,4.515,5.525c10.173-0.108,19,2.888,25.51,11.105c4.113,5.192,6.236,11.265,7.289,17.73
	c0.632,3.884-0.027,4.592-4.096,4.593c-24.202,0.009-48.403,0.003-72.604,0.001c-7.229,0-14.456,0.003-21.684-0.011
	C274.167,279.87,273.101,279.785,271.737,279.726z M317.444,194.254c-0.056-6.009-4.89-10.876-10.83-10.904
	c-6.086-0.028-11.138,5.011-11.069,11.041c0.07,6.119,5.083,10.983,11.204,10.871C312.732,205.154,317.499,200.248,317.444,194.254z
	 M308.302,248.357c-0.082-3.212-2.835-5.77-6.034-5.605c-3.02,0.155-5.528,2.876-5.438,5.899c0.095,3.138,2.961,5.79,6.075,5.62
	C305.958,254.104,308.381,251.45,308.302,248.357z"/>
<path fill-rule="evenodd" clip-rule="evenodd" fill="#C40D0A" d="M489.25,165.141c-0.81,1.265-1.326,2.495-2.199,3.369
	c-20.789,20.846-41.607,41.663-62.446,62.459c-2.552,2.545-4.18,2.547-6.7,0.03c-24.164-24.129-48.312-48.274-72.443-72.436
	c-2.821-2.825-2.818-4.348,0.026-7.198c20.647-20.677,41.313-41.337,61.995-61.979c2.716-2.71,4.243-2.707,6.936-0.016
	c24.159,24.134,48.303,48.284,72.424,72.456C487.728,162.715,488.342,163.875,489.25,165.141z"/>
<path fill-rule="evenodd" clip-rule="evenodd" fill="#C40D0A" d="M267.696,313.674c-47.632-0.001-95.265,0-142.897-0.002
	c-5.157,0-5.184-0.027-5.194-5.063c-0.01-4.928-0.024-9.854,0.004-14.782c0.032-5.404,1.918-7.283,7.357-7.285
	c30.66-0.012,61.32-0.006,91.98-0.006c62.634,0.002,125.268,0.003,187.903,0.006c6.766,0,8.271,1.509,8.274,8.295
	c0.003,4.161-0.002,8.322,0.002,12.483c0.005,6.349,0.006,6.353-6.503,6.353c-29.126,0.002-58.254,0.002-87.381,0.002
	C303.394,313.674,285.545,313.674,267.696,313.674z"/>
<path fill-rule="evenodd" clip-rule="evenodd" fill="#C40D0A" d="M234.358,279.885c1.76-8.449,3.836-16.389,5.005-24.459
	c2.302-15.904,1.865-31.884,0.035-47.821c-0.15-1.298-0.771-2.811-1.694-3.657c-0.635-0.582-2.657-0.663-3.194-0.117
	c-0.927,0.942-1.68,2.565-1.631,3.87c0.199,5.465,0.901,10.912,1.097,16.377c0.6,16.812-0.106,33.503-5.338,49.697
	c-0.168,0.521-0.411,1.026-0.508,1.559c-0.655,3.603-2.63,4.817-6.392,4.65c-7.541-0.335-15.107-0.084-22.663-0.105
	c-4.09-0.012-4.801-1.125-2.907-4.709c7.944-15.034,13.675-30.802,15.736-47.758c2.198-18.087-0.212-35.391-7.349-52.346
	c-2.696-6.405-6.748-11.02-11.34-15.625c-9.739-9.766-19.527-19.484-29.216-29.3c-0.961-0.974-1.375-2.487-2.043-3.75
	c1.461-0.396,2.952-1.222,4.38-1.126c19.177,1.288,37.454,5.695,53.619,16.611c20.976,14.165,33.692,34.382,41.242,58.041
	c8.053,25.24,8.572,50.996,4.159,76.977c-0.383,2.259-1.25,3.077-3.608,3.044C252.561,279.808,243.372,279.885,234.358,279.885z"/>
<path fill-rule="evenodd" clip-rule="evenodd" fill="#C40D0A" d="M310.796,194.738c-0.354,2.206-1.622,3.777-4.255,3.843
	c-2.456,0.062-4.476-1.967-4.279-4.394c0.204-2.522,1.643-4.033,4.227-4.127C308.912,189.971,310.88,192.07,310.796,194.738z"/>
</svg>
