<?xml version="1.0" encoding="utf-8"?>
<!-- Generator: Adobe Illustrator 16.0.3, SVG Export Plug-In . SVG Version: 6.00 Build 0)  -->
<!DOCTYPE svg PUBLIC "-//W3C//DTD SVG 1.1//EN" "http://www.w3.org/Graphics/SVG/1.1/DTD/svg11.dtd">
<svg version="1.1" id="Capa_1" xmlns="http://www.w3.org/2000/svg" xmlns:xlink="http://www.w3.org/1999/xlink" x="0px" y="0px"
	 width="512px" height="512px" viewBox="0 0 512 512" enable-background="new 0 0 512 512" xml:space="preserve">
<path fill-rule="evenodd" clip-rule="evenodd" fill="#C40000" d="M155.583,300.349c2.493,0,4.167,0,5.841,0
	c63.402,0,126.805-0.013,190.208,0.011c13.751,0.006,23.909,9.613,23.684,22.479c-0.147,8.404-4.053,14.91-11.366,18.906
	c-2.838,1.551-3.945,3.23-4.187,6.319c-2.915,37.299-18.304,68.671-45.835,93.835c-25.768,23.554-56.438,35.898-91.338,36.462
	c-18.506,0.299-37.246,0.495-55.521-1.95c-59.01-7.897-108.772-58.877-116.632-117.878c-0.143-1.072-0.483-2.143-0.463-3.209
	c0.136-7.063-1.793-12.258-8.516-16.548c-7.693-4.907-9.451-15.191-6.3-23.786c3.227-8.803,11.365-14.586,21.096-14.61
	c29.227-0.073,58.454-0.029,87.681-0.031c1.542,0,3.084,0,4.74,0c-1.196-2.297-3.174-4.435-3.195-6.59
	c-0.021-2.274,1.301-5.104,2.971-6.729c2.795-2.719,7.403-1.798,9.866,1.271C161.095,291.762,160.445,295.374,155.583,300.349z
	 M345.747,345.133c-94.429,0-188.056,0-282.626,0c1.912,10.138,3.748,19.876,5.647,29.949c2.328-0.707,3.649-1.08,4.951-1.51
	c24.024-7.927,48.678-11.234,73.549-6.267c17.022,3.401,33.761,8.66,50.241,14.225c23.62,7.976,47.493,11.93,71.958,5.918
	c23.659-5.813,47.04-12.768,70.492-19.401c1.176-0.333,2.416-2.286,2.683-3.667C343.836,358.177,344.688,351.909,345.747,345.133z"
	/>
<path fill-rule="evenodd" clip-rule="evenodd" fill="#C40000" d="M271.819,181.529c-12.584,0-25.242,0-37.901,0
	c-2.475,0-4.966,0.188-7.419-0.039c-5.106-0.475-8.637,1.211-11.593,5.727c-4.159,6.355-10.69,9.139-18.295,9.151
	c-14.691,0.024-29.384,0.137-44.073-0.03c-20.473-0.232-36.714-16.276-37.053-36.352c-0.336-19.955,15.924-37.138,36.334-37.718
	c15.298-0.436,30.619-0.243,45.926-0.053c7.79,0.097,13.611,3.978,18.31,10.212c1.622,2.151,4.863,4.311,7.398,4.351
	c21.645,0.337,43.298,0.188,64.948,0.17c0.403-0.001,0.808-0.19,1.229-0.296c-6.023-14.732-4.968-23.753,3.588-31.23
	c8.224-7.187,16.83-7.233,29.544-0.102c9.769-6.852,19.688-7.048,29.838-0.146c9.751-6.728,19.677-6.894,29.75,0.043
	c6.801-5.077,14.514-7.437,22.474-3.747c4.406,2.042,8.681,5.516,11.6,9.406c9.27,12.357,17.937,25.172,26.682,37.916
	c1.589,2.316,3.265,3.183,6.05,3.104c7.107-0.199,14.226-0.113,21.339-0.05c6.063,0.053,8.799,2.737,8.808,8.795
	c0.043,26.29,0.05,52.58-0.002,78.869c-0.015,7.007-4.027,9.932-11.006,8.081c-34.47-9.143-68.917-18.368-103.401-27.451
	c-3.385-0.891-6.968-1.372-10.468-1.421c-12.06-0.17-24.124-0.054-36.187-0.068c-23.38-0.026-39.863-12.788-45.859-35.482
	C272.266,182.744,272.094,182.329,271.819,181.529z M287.59,182.487c0.497,1.388,0.879,3.016,1.627,4.454
	c5.53,10.647,14.312,16.537,26.318,16.796c13.758,0.297,27.527,0.007,41.291,0.129c3.051,0.026,6.186,0.377,9.131,1.149
	c21.353,5.599,42.663,11.355,63.992,17.041c11.312,3.016,22.634,5.989,34.224,9.054c0-21.688,0-42.913,0-64.433
	c-6.93,0-13.564-0.19-20.182,0.065c-4.519,0.175-7.555-1.556-10.077-5.22c-9.553-13.877-19.253-27.654-28.937-41.44
	c-5.345-7.61-10.957-7.322-15.458,0.727c-3.04,5.432-8.959,5.967-12.908,1.129c-1.072-1.314-1.911-2.827-3.022-4.104
	c-4.074-4.685-10.019-4.06-13.017,1.313c-4.469,8.005-9.667,8.311-15.023,0.882c-5.448-7.555-10.901-7.263-15.462,0.83
	c-3.052,5.415-8.952,5.895-12.928,1.049c-1.269-1.547-2.336-3.333-3.839-4.603c-5.163-4.359-11.945-2.462-12.771,3.775
	c-0.303,2.284,0.82,5.171,2.176,7.189c6.722,10.007,13.7,19.843,20.665,29.684c3.811,5.383,4.901,11.018,1.6,16.937
	c-3.19,5.72-8.371,7.792-14.787,7.638C302.814,182.351,295.421,182.487,287.59,182.487z"/>
<path fill-rule="evenodd" clip-rule="evenodd" fill="#C40000" d="M182.515,226.046c-4.009,0.127-7.477-3.14-7.604-7.165
	c-0.126-4.025,3.121-7.478,7.156-7.606c4.013-0.127,7.481,3.134,7.61,7.158C189.805,222.433,186.527,225.917,182.515,226.046z"/>
<path fill-rule="evenodd" clip-rule="evenodd" fill="#C40000" d="M152.658,218.701c4.027,0.041,7.357,3.432,7.316,7.452
	c-0.041,4.017-3.448,7.36-7.456,7.319c-4.025-0.042-7.351-3.435-7.31-7.458C145.25,221.978,148.628,218.661,152.658,218.701z"/>
<path fill-rule="evenodd" clip-rule="evenodd" fill="#C40000" d="M130.494,248.323c-4.014,0.104-7.459-3.178-7.563-7.206
	c-0.103-4.028,3.162-7.46,7.197-7.565c4.015-0.104,7.463,3.175,7.568,7.199C137.801,244.755,134.506,248.219,130.494,248.323z"/>
<path fill-rule="evenodd" clip-rule="evenodd" fill="#C40000" d="M182.251,248.468c-0.063,4.015-3.489,7.344-7.494,7.281
	c-4.023-0.063-7.334-3.478-7.272-7.497c0.063-4.036,3.46-7.336,7.488-7.273C179,241.041,182.313,244.451,182.251,248.468z"/>
<path fill-rule="evenodd" clip-rule="evenodd" fill="#C40000" d="M152.362,255.829c4.012-0.128,7.481,3.133,7.612,7.157
	c0.13,3.998-3.148,7.484-7.16,7.614c-4.008,0.13-7.478-3.139-7.606-7.163C145.081,259.412,148.327,255.96,152.362,255.829z"/>
<path fill-rule="evenodd" clip-rule="evenodd" fill="#C40000" d="M130.287,270.681c4.025-0.014,7.394,3.332,7.41,7.359
	c0.015,4.012-3.348,7.398-7.362,7.412c-4.02,0.014-7.39-3.339-7.403-7.365C122.917,274.052,126.249,270.696,130.287,270.681z"/>
<path fill-rule="evenodd" clip-rule="evenodd" fill="#C40000" d="M175.048,285.452c-4.014,0.104-7.459-3.179-7.563-7.206
	c-0.103-4.028,3.162-7.46,7.197-7.565c4.015-0.104,7.463,3.176,7.568,7.199C182.355,281.884,179.061,285.348,175.048,285.452z"/>
<g>
</g>
<g>
</g>
<g>
</g>
<g>
</g>
<g>
</g>
<g>
</g>
<g>
</g>
<g>
</g>
<g>
</g>
<g>
</g>
<g>
</g>
<g>
</g>
<g>
</g>
<g>
</g>
<g>
</g>
</svg>
