<?xml version="1.0" encoding="utf-8"?>
<!-- Generator: Adobe Illustrator 16.0.3, SVG Export Plug-In . SVG Version: 6.00 Build 0)  -->
<!DOCTYPE svg PUBLIC "-//W3C//DTD SVG 1.1//EN" "http://www.w3.org/Graphics/SVG/1.1/DTD/svg11.dtd">
<svg version="1.1" id="Capa_1" xmlns="http://www.w3.org/2000/svg" xmlns:xlink="http://www.w3.org/1999/xlink" x="0px" y="0px"
	 width="512px" height="212.667px" viewBox="0 0 512 212.667" enable-background="new 0 0 512 212.667" xml:space="preserve">
<path fill-rule="evenodd" clip-rule="evenodd" fill="#FFFFFF" d="M70.23,168.622c-4.972-2.517-9.366-5.885-13.931-9.046
	c-7.978-5.522-14.847-12.189-20.751-19.696c-5.597-7.118-9.522-15.279-10.822-24.484c-2.604-18.436,5.42-32.792,17.707-45.265
	c8.129-8.252,17.531-14.926,27.843-20.373c3.976-2.101,7.792-4.546,11.939-6.325c2.168-0.93,1.875-2.441,1.317-4.04
	c-1.205-3.448-2.037-6.942-1.781-10.623c0.45-6.485,3.836-11.048,9.331-14.237c12.016-6.979,25.459-8.387,38.825-9.027
	c25.373-1.216,50.709-0.057,76.036,2.22c20.691,1.86,41.361,3.956,62.227,4.1c20.658,0.143,41.252,2.357,61.705,5.775
	c14.376,2.401,28.658,5.14,42.705,8.958c15.259,4.146,30.161,9.376,44.599,15.902c10.881,4.92,21.222,10.765,30.825,17.835
	c11.979,8.823,21.662,19.584,26.722,33.879c5.034,14.221,2.565,27.6-5.066,40.227c-5.83,9.647-13.884,17.267-22.856,23.917
	c-2.316,1.718-2.421,3.165-1.166,5.511c2.951,5.515,5.082,11.224,3.785,17.726c-1.336,6.699-6.106,10.332-11.507,13.455
	c-7.874,4.555-16.639,6.562-25.406,8.283c-19.9,3.909-40.117,4.466-60.314,5.183c-32.537,1.152-65.028-0.386-97.512-1.751
	c-11.334-0.477-22.679-0.208-34.005-1.079c-17.822-1.371-35.582-2.986-53.229-6.048c-15.407-2.673-30.639-5.968-45.629-10.336
	c-9.92-2.893-19.681-6.308-29.234-10.299c-4.387-1.832-8.681-3.533-12.985-5.908C77.127,171.787,71.23,169.122,70.23,168.622z"/>
<path fill-rule="evenodd" clip-rule="evenodd" fill="#BC180A" d="M85.961,169.848c10.928-12.319,17.215-27.031,21.932-42.551
	c0.916-3.014,1.967-6,2.647-9.066c0.507-2.287,1.418-3.041,3.915-3.245c20.389-1.663,36.508-11.063,48.705-27.407
	c1.542-2.066,2.988-4.181,4.099-6.477c0.921-1.906,1.92-1.455,2.832-0.304c1.598,2.02,2.557,4.307,2.583,6.99
	c0.101,10.02-1.968,19.738-3.96,29.469c-2.625,12.822-5.937,25.492-9.671,38.011c-1.788,5.993,5.232,12.931,11.689,12.383
	c2.417-0.204,3.24-2.146,3.784-4.073c1.964-6.967,3.749-13.983,5.738-20.942c4.381-15.334,10.473-29.952,18.765-43.601
	c1.572-2.586,3.374-5.071,5.345-7.365c2.977-3.464,5.87-3.584,9.447-0.739c4.788,3.808,7.725,3.007,10.251-2.703
	c1.915-4.326,2.225-8.814,1.409-13.386c-0.697-3.905-2.706-7.209-6.505-8.502c-3.913-1.331-7.663-0.046-10.708,2.736
	c-4.542,4.151-7.877,9.239-10.762,14.616c-3.864,7.198-7.087,14.682-9.619,22.458c-0.349,1.069-0.622,2.234-1.844,3.178
	c-0.534-3.084,0.28-5.846,0.939-8.602c1.579-6.594,3.249-13.169,3.231-20.018c-0.023-9.283-6.709-14.339-15.683-11.855
	c-0.783,0.217-1.546,0.505-2.635,0.863c0.307-2.714,0.595-5.209,0.873-7.707c1.625-14.597-2.639-26.515-15.656-34.465
	c-0.375-0.229-0.631-0.65-0.942-0.98c0.899-0.243,1.787-0.551,2.7-0.719c11.359-2.101,22.763-3.862,34.256-5.109
	c25.246-2.74,50.516-3.862,75.923-2.868c28.191,1.103,56.096,4.173,83.659,10.179c22.431,4.886,44.25,11.676,64.942,21.748
	c2.535,1.235,5.524,1.925,7.284,4.492c-2.794,2.494-4.135,6.022-6.274,9.282c-0.945-1.123-1.672-2.015-2.431-2.881
	c-3.957-4.516-8.797-6.743-14.918-6.045c-5.965,0.68-10.88,3.575-15.205,7.374c-17.86,15.686-26.381,35.77-27.236,59.282
	c-0.306,8.394,0.81,16.578,5.229,23.968c6.882,11.508,17.896,12.583,27.71,4.535c5.251-4.307,8.729-10,11.551-16.107
	c0.896-1.942,1.766-3.898,2.647-5.849c0.513,3.184,0.136,6.261,0.581,9.215c1.43,9.479,6.706,16.417,16.419,15.16
	c6.42-0.831,13.521-7.908,14.702-14.771c0.329-1.915,1.17-4.268-0.576-5.611c-1.629-1.251-3.1,0.797-4.642,1.43
	c-6.426,2.639-9.881,1.956-10.833-5.797c-0.522-4.254-0.244-8.456,0.631-12.554c3.905-18.284,9.879-35.961,16.082-53.563
	c1.438,1.186,2.84,2.42,4.32,3.549c6.525,4.978,12.398,10.612,17.426,17.111c12.68,16.396,12.983,36.52,0.722,53.228
	c-10.439,14.226-24.656,23.785-40.079,31.651c-21.351,10.889-44.038,18.027-67.407,23.105c-16.027,3.483-32.164,6.273-48.486,7.997
	c-13.137,1.389-26.322,1.996-39.502,2.609c-14.61,0.68-29.228,0.123-43.832-0.656c-13.064-0.697-26.085-1.863-39.039-3.653
	c-19.902-2.75-39.565-6.687-58.86-12.37C110.733,180.126,98.18,175.439,85.961,169.848z M215.37,128.97
	c-0.115,4.527,0.506,8.936,1.418,13.287c3.22,15.345,14.126,23.048,29.376,20.485c9.444-1.587,16.642-7.189,22.427-14.452
	c12.836-16.116,18.359-34.725,17.646-55.189c-0.203-5.853-1.532-11.589-4.324-16.842c-3.303-6.218-7.86-10.993-15.083-12.502
	c-10.242-2.139-19.061,1.257-26.565,7.809C222.923,86.704,216.61,106.792,215.37,128.97z M343.745,90.747
	c0.252,14.738-6.748,33.796-16.217,44.621c-3.197,3.655-6.833,6.69-11.437,8.427c-7.309,2.758-10.307,0.937-11.111-6.8
	c-0.095-0.911,0.021-1.858,0.143-2.775c1.559-11.777,6.056-22.747,9.417-34.026c2.501-8.396,5.046-16.763,6.002-25.521
	c0.756-6.912-1.653-11.833-6.917-13.844c-5.16-1.972-12.937,0.407-16.07,4.873c-1.566,2.233-1.933,4.379,0.701,5.967
	c3.297,1.986,4.134,4.885,3.555,8.407c-0.491,2.993-0.864,6.031-1.674,8.944c-3.497,12.591-7.314,25.095-10.65,37.728
	c-1.854,7.016-2.964,14.224-0.988,21.489c2.11,7.758,10.085,13.356,17.66,11.58c5.827-1.368,11.724-3.089,16.726-6.703
	c26.404-19.081,38.499-45.192,37.732-77.473c-0.09-3.776-1.02-7.591-2.819-11.05c-4.233-8.144-14.149-9.118-19.494-1.952
	c-1.139,1.526-1.916,3.234-0.688,4.822C343.055,74.502,343.294,82.829,343.745,90.747z"/>
<path fill-rule="evenodd" clip-rule="evenodd" fill="#FBCA04" d="M85.961,169.848c12.219,5.592,24.772,10.278,37.666,14.075
	c19.295,5.684,38.958,9.62,58.86,12.37c12.953,1.79,25.975,2.956,39.039,3.653c14.604,0.779,29.222,1.336,43.832,0.656
	c13.18-0.613,26.365-1.221,39.502-2.609c16.322-1.724,32.459-4.514,48.486-7.997c23.369-5.078,46.057-12.217,67.407-23.105
	c15.423-7.866,29.64-17.426,40.079-31.651c12.262-16.708,11.958-36.832-0.722-53.228c-5.027-6.499-10.9-12.134-17.426-17.111
	c-1.48-1.129-2.883-2.363-4.321-3.547c0.926-3.216-1.173-5.145-3.367-6.507c-3.105-1.928-6.58-2.831-10.069-0.562
	c-1.76-2.567-4.749-3.257-7.284-4.492c-20.692-10.072-42.512-16.862-64.942-21.748c-27.563-6.005-55.468-9.076-83.659-10.179
	c-25.408-0.994-50.677,0.128-75.923,2.868c-11.493,1.247-22.897,3.008-34.256,5.109c-0.913,0.168-1.8,0.477-2.7,0.719
	c-3.033,0.335-5.021-2.144-7.728-2.833c-15.707-3.999-30.676-1.523-45.304,4.698c-3.539,1.505-6.74,3.572-9.952,5.616
	c-4.974,3.167-6.256,7.953-5.558,13.505c-4.647,2.607-9.606,4.571-14.212,7.305c-10.771,6.391-21.003,13.419-29.312,22.913
	c-16.847,19.249-17.399,41.349-1.753,60.623c8.156,10.047,18.612,17.211,29.296,24.142c0.824,0.534,1.746,0.621,2.642,0.069
	c-0.451,1.51-1.517,2.775-1.355,4.544c0.245,2.676-1.249,2.56-3.074,1.637c-4.972-2.517-9.366-5.885-13.931-9.046
	c-7.978-5.522-14.847-12.189-20.751-19.696c-5.597-7.118-9.522-15.279-10.822-24.484c-2.604-18.436,5.42-32.792,17.707-45.265
	c8.129-8.252,17.531-14.926,27.843-20.374c3.976-2.1,7.792-4.546,11.939-6.325c2.168-0.929,1.875-2.441,1.317-4.04
	c-1.205-3.448-2.037-6.942-1.781-10.623c0.45-6.485,3.836-11.047,9.331-14.237c12.016-6.978,25.459-8.386,38.825-9.027
	c25.373-1.216,50.709-0.058,76.036,2.219c20.691,1.86,41.361,3.956,62.227,4.1c20.658,0.143,41.252,2.357,61.705,5.775
	c14.376,2.402,28.658,5.14,42.705,8.958c15.259,4.147,30.161,9.376,44.599,15.903c10.881,4.92,21.222,10.765,30.825,17.835
	c11.979,8.823,21.662,19.583,26.722,33.878c5.034,14.221,2.565,27.6-5.066,40.227c-5.83,9.647-13.884,17.267-22.856,23.917
	c-2.316,1.718-2.421,3.165-1.166,5.511c2.951,5.515,5.082,11.224,3.785,17.726c-1.336,6.699-6.106,10.332-11.507,13.455
	c-7.874,4.555-16.639,6.562-25.406,8.283c-19.9,3.909-40.117,4.466-60.314,5.183c-32.537,1.152-65.028-0.386-97.512-1.751
	c-11.334-0.477-22.679-0.208-34.005-1.079c-17.822-1.371-35.582-2.986-53.229-6.048c-15.407-2.673-30.639-5.968-45.629-10.336
	c-9.92-2.893-19.681-6.308-29.234-10.299c-4.387-1.832-8.96-3.225-12.985-5.908c1.149-0.511,2.301-0.976,3.408-1.529
	C83.762,171.117,84.853,170.464,85.961,169.848z"/>
<path fill-rule="evenodd" clip-rule="evenodd" fill="#BC180A" d="M74.279,162.601c-0.896,0.552-1.817,0.465-2.642-0.069
	c-10.684-6.931-21.14-14.095-29.296-24.142c-15.646-19.274-15.093-41.374,1.753-60.623c8.309-9.493,18.541-16.521,29.312-22.913
	c4.606-2.733,9.565-4.698,14.212-7.305c1.829,2.231,3.374,4.718,6.067,6.123c2.723,1.421,5.057,1.274,7.246-1.088
	c7.726-8.339,17.097-14.078,28.057-17.045c4.75-1.286,9.832-1.342,14.493-0.179c7.936,1.981,12.086,8.823,12.287,18.699
	c0.236,11.605-4.51,21.326-11.669,30.049c-7.685,9.364-17.337,15.729-29.577,19.025c2.245-9.357,4.336-18.291,6.546-27.194
	c1.209-4.871,2.599-9.698,3.94-14.536c1.225-4.42,0.166-8.257-2.89-10.281c-5.402-3.576-9.564-2.456-12.43,3.571
	c-4.542,9.55-7.015,19.779-9.449,29.999c-4.652,19.535-8.658,39.247-15.628,58.149C82.027,149.851,79.22,156.799,74.279,162.601z"/>
<path fill-rule="evenodd" clip-rule="evenodd" fill="#FEFEFE" d="M424.926,54.285c3.489-2.269,6.964-1.366,10.069,0.562
	c2.194,1.362,4.293,3.291,3.367,6.507c-6.202,17.6-12.176,35.276-16.081,53.561c-0.875,4.098-1.153,8.3-0.631,12.554
	c0.952,7.753,4.407,8.436,10.833,5.797c1.542-0.633,3.013-2.681,4.642-1.43c1.746,1.344,0.905,3.696,0.576,5.611
	c-1.182,6.863-8.282,13.94-14.702,14.771c-9.713,1.257-14.989-5.682-16.419-15.16c-0.445-2.954-0.068-6.031-0.581-9.215
	c-0.882,1.95-1.751,3.906-2.647,5.849c-2.821,6.107-6.3,11.801-11.551,16.107c-9.813,8.048-20.828,6.973-27.71-4.535
	c-4.42-7.39-5.535-15.574-5.229-23.968c0.855-23.512,9.376-43.596,27.236-59.282c4.325-3.798,9.24-6.693,15.205-7.374
	c6.121-0.698,10.961,1.529,14.918,6.045c0.759,0.866,1.485,1.758,2.431,2.881C420.791,60.307,422.132,56.779,424.926,54.285z
	 M376.764,123.709c0.041,3.644,0.067,7.258,0.966,10.813c1.516,5.994,5.973,7.501,10.723,3.523c2.067-1.731,3.732-3.85,5.238-6.092
	c7.38-10.984,11.986-23.189,15.594-35.802c1.572-5.492,2.813-11.083,4.059-16.663c1.069-4.784-0.74-9.499-4.31-11.739
	c-4.251-2.669-7.871-0.631-11.277,1.753c-2.88,2.016-5.249,4.638-7.241,7.545C380.881,91.115,377.336,106.979,376.764,123.709z"/>
<path fill-rule="evenodd" clip-rule="evenodd" fill="#FEFEFE" d="M215.37,128.97c1.24-22.178,7.553-42.266,24.895-57.404
	c7.505-6.552,16.323-9.948,26.565-7.809c7.223,1.509,11.78,6.285,15.083,12.502c2.792,5.253,4.121,10.989,4.324,16.842
	c0.714,20.465-4.81,39.073-17.646,55.189c-5.785,7.263-12.983,12.865-22.427,14.452c-15.25,2.563-26.157-5.141-29.376-20.485
	C215.876,137.905,215.254,133.497,215.37,128.97z M268.275,92.703c0-4.723-0.244-9.393-1.955-13.828
	c-1.978-5.12-6.127-6.374-10.651-3.235c-3.321,2.305-5.746,5.471-7.849,8.862c-7.11,11.473-11.337,24.012-13.437,37.282
	c-1.321,8.346-1.982,16.735,0.541,25c1.8,5.9,5.759,7.371,11.06,4.163c3.81-2.307,6.366-5.847,8.542-9.583
	C263.288,126.333,267.383,109.959,268.275,92.703z"/>
<path fill-rule="evenodd" clip-rule="evenodd" fill="#FEFEFE" d="M343.745,90.747c-0.451-7.918-0.69-16.245-6.131-23.286
	c-1.228-1.588-0.45-3.296,0.688-4.822c5.345-7.166,15.261-6.192,19.494,1.952c1.8,3.459,2.729,7.274,2.819,11.05
	c0.767,32.28-11.328,58.392-37.732,77.473c-5.002,3.614-10.898,5.335-16.726,6.703c-7.575,1.776-15.55-3.822-17.66-11.58
	c-1.976-7.266-0.865-14.474,0.988-21.489c3.336-12.633,7.153-25.137,10.65-37.728c0.81-2.913,1.183-5.951,1.674-8.944
	c0.579-3.522-0.258-6.421-3.555-8.407c-2.634-1.588-2.268-3.734-0.701-5.967c3.134-4.466,10.91-6.844,16.07-4.873
	c5.264,2.011,7.673,6.932,6.917,13.844c-0.956,8.758-3.501,17.125-6.002,25.521c-3.361,11.279-7.858,22.249-9.417,34.026
	c-0.122,0.917-0.237,1.864-0.143,2.775c0.805,7.736,3.803,9.558,11.111,6.8c4.604-1.736,8.239-4.771,11.437-8.427
	C336.997,124.543,343.997,105.485,343.745,90.747z"/>
<path fill-rule="evenodd" clip-rule="evenodd" fill="#BC180A" d="M376.764,123.709c0.572-16.73,4.117-32.594,13.751-46.662
	c1.992-2.907,4.361-5.529,7.241-7.545c3.406-2.384,7.026-4.422,11.277-1.753c3.569,2.24,5.379,6.955,4.31,11.739
	c-1.246,5.58-2.486,11.171-4.059,16.663c-3.607,12.612-8.214,24.817-15.594,35.802c-1.506,2.242-3.171,4.36-5.238,6.092
	c-4.75,3.978-9.207,2.471-10.723-3.523C376.831,130.967,376.805,127.353,376.764,123.709z"/>
<path fill-rule="evenodd" clip-rule="evenodd" fill="#BC180A" d="M268.275,92.703c-0.893,17.256-4.987,33.63-13.75,48.661
	c-2.177,3.736-4.733,7.276-8.542,9.583c-5.301,3.208-9.26,1.737-11.06-4.163c-2.523-8.265-1.861-16.654-0.541-25
	c2.1-13.271,6.327-25.81,13.437-37.282c2.103-3.392,4.527-6.558,7.849-8.862c4.524-3.139,8.674-1.885,10.651,3.235
	C268.031,83.311,268.275,87.98,268.275,92.703z"/>
<path fill-rule="evenodd" clip-rule="evenodd" fill="#FBCA04" d="M75.868,162.95"/>
</svg>
